# xmcd
#
# Track frame offsets: 
#        150
#        37862
#        57012
#        80728
#        105405
#        135534
#        168014
#        214789
#        234384
#        271411
#
# Disc length: 3892 seconds
#
# Revision: 0
# Processed by: cddbd v1.5.2PL0 Copyright (c) Steve Scherf et al.
# Submitted via: ExactAudioCopy v0.99pb4
#
DISCID=780f320a
DTITLE=Shawn Kellerman - Blues Without a Home
DYEAR=2009
DGENRE=Blues
TTITLE0=Ted's Jam
TTITLE1=Good Times
TTITLE2=Counterfeit Man
TTITLE3=Give Me My Blues
TTITLE4=Love is Sweet
TTITLE5=Love of Mine
TTITLE6=Big Mama's Door
TTITLE7=Pretty Woman
TTITLE8=Burrito Brain
TTITLE9=Jellyroll
EXTD=
EXTT0=
EXTT1=
EXTT2=
EXTT3=
EXTT4=
EXTT5=
EXTT6=
EXTT7=
EXTT8=
EXTT9=
PLAYORDER=
